<?xml version="1.0" encoding="UTF-8"?>
<svg xmlns="http://www.w3.org/2000/svg" xmlns:xlink="http://www.w3.org/1999/xlink" width="448pt" height="512pt" viewBox="0 0 448 512" version="1.1">
<g id="surface41">
<path style=" stroke:none;fill-rule:nonzero;fill:rgb(81.176472%,8.235294%,8.235294%);fill-opacity:1;" d="M 448 344 L 448 456 C 448.015625 462.371094 445.492188 468.484375 440.988281 472.988281 C 436.484375 477.492188 430.371094 480.015625 424 480 L 312 480 C 290.609375 480 279.910156 454.101562 295 439 L 331.199219 402.800781 L 224 295.601562 L 116.769531 402.898438 L 153 439 C 168.089844 454.101562 157.390625 480 136 480 L 24 480 C 17.628906 480.015625 11.515625 477.492188 7.011719 472.988281 C 2.507812 468.484375 -0.015625 462.371094 0 456 L 0 344 C 0 322.601562 25.890625 311.898438 41 327 L 77.191406 363.199219 L 184.460938 256 L 77.179688 148.699219 L 41 185 C 25.898438 200.101562 0 189.398438 0 168 L 0 56 C -0.015625 49.628906 2.507812 43.515625 7.011719 39.011719 C 11.515625 34.507812 17.628906 31.984375 24 32 L 136 32 C 157.390625 32 168.089844 57.898438 153 73 L 116.800781 109.199219 L 224 216.398438 L 331.230469 109.101562 L 295 73 C 279.910156 57.898438 290.609375 32 312 32 L 424 32 C 430.371094 31.984375 436.484375 34.507812 440.988281 39.011719 C 445.492188 43.515625 448.015625 49.628906 448 56 L 448 168 C 448 189.398438 422.109375 200.101562 407 185 L 370.808594 148.800781 L 263.539062 256 L 370.820312 363.300781 L 407 327.101562 C 422.101562 311.898438 448 322.601562 448 344 Z M 448 344 "/>
</g>
</svg>
